HIERARCHY
ROOT root
{
	OFFSET	0	13.1	24.9
	CHANNELS 6  Xposition Yposition Zposition Xrotation Yrotation Zrotation
	JOINT spine_1
	{
		OFFSET	0	9.99999	0
		CHANNELS 3  Xrotation Yrotation Zrotation
		JOINT spine_2
		{
			OFFSET	0	112	-10
			CHANNELS 3  Xrotation Yrotation Zrotation
			JOINT spine_3
			{
				OFFSET	0	206.5	19.3
				CHANNELS 3  Xrotation Yrotation Zrotation
				JOINT spine_4
				{
					OFFSET	0	110.4	14.6
					CHANNELS 3  Xrotation Yrotation Zrotation
					JOINT neck_1
					{
						OFFSET	0	71.8	-50.3
						CHANNELS 3  Xrotation Yrotation Zrotation
						JOINT neck_2
						{
							OFFSET	0	86.2	-25.8
							CHANNELS 3  Xrotation Yrotation Zrotation
							JOINT head_ee
							{
								OFFSET	0	179.8	-8.7
								CHANNELS 3  Xrotation Yrotation Zrotation
								End Site
								{
									OFFSET	1	0	0
								}
							}
						}
					}
					JOINT left_clavicle
					{
						OFFSET	-43.2	22.4	-70.8
						CHANNELS 3  Xrotation Yrotation Zrotation
						JOINT left_shoulder
						{
							OFFSET	-93.9	-5.79999	48.7
							CHANNELS 3  Xrotation Yrotation Zrotation
							JOINT left_elbow
							{
								OFFSET	-291.4	-30.8	15.2
								CHANNELS 3  Xrotation Yrotation Zrotation
								JOINT left_lowarm_twist
								{
									OFFSET	-110.7	-3.89999	13.6
									CHANNELS 3  Xrotation Yrotation Zrotation
									JOINT left_hand
									{
										OFFSET	-110.7	-3.89999	13.6
										CHANNELS 3  Xrotation Yrotation Zrotation
										JOINT left_ee
										{
											OFFSET	-80.8	-5.10001	12.1
											CHANNELS 3  Xrotation Yrotation Zrotation
											End Site
											{
												OFFSET	1	0	0
											}
										}
									}
								}
							}
						}
					}
					JOINT right_clavicle
					{
						OFFSET	43.2	22.4	-70.8
						CHANNELS 3  Xrotation Yrotation Zrotation
						JOINT right_shoulder
						{
							OFFSET	93.9	-5.79999	48.7
							CHANNELS 3  Xrotation Yrotation Zrotation
							JOINT right_elbow
							{
								OFFSET	291.4	-30.8	15.2
								CHANNELS 3  Xrotation Yrotation Zrotation
								JOINT right_lowarm_twist
								{
									OFFSET	110.7	-3.89999	13.6
									CHANNELS 3  Xrotation Yrotation Zrotation
									JOINT right_hand
									{
										OFFSET	110.7	-3.89999	13.6
										CHANNELS 3  Xrotation Yrotation Zrotation
										JOINT right_ee
										{
											OFFSET	80.8	-5.10001	12.1
											CHANNELS 3  Xrotation Yrotation Zrotation
											End Site
											{
												OFFSET	1	0	0
											}
										}
									}
								}
							}
						}
					}
				}
			}
		}
	}
	JOINT left_hip
	{
		OFFSET	-82.8	-127.5	0.300001
		CHANNELS 3  Xrotation Yrotation Zrotation
		JOINT left_knee
		{
			OFFSET	-28.2	-396.7	2.2
			CHANNELS 3  Xrotation Yrotation Zrotation
			JOINT left_ankle
			{
				OFFSET	-11.7	-411.3	35.4
				CHANNELS 3  Xrotation Yrotation Zrotation
				JOINT left_toes
				{
					OFFSET	0	-60	-88.6
					CHANNELS 3  Xrotation Yrotation Zrotation
					JOINT left_foot_ee
					{
						OFFSET	-22.5	-16.5	-42.2
						CHANNELS 3  Xrotation Yrotation Zrotation
						End Site
						{
							OFFSET	1	0	0
						}
					}
				}
			}
		}
	}
	JOINT right_hip
	{
		OFFSET	82.8	-127.5	0.300001
		CHANNELS 3  Xrotation Yrotation Zrotation
		JOINT right_knee
		{
			OFFSET	28.2	-396.7	2.2
			CHANNELS 3  Xrotation Yrotation Zrotation
			JOINT right_ankle
			{
				OFFSET	11.7	-411.3	35.4
				CHANNELS 3  Xrotation Yrotation Zrotation
				JOINT right_toes
				{
					OFFSET	0	-60	-88.6
					CHANNELS 3  Xrotation Yrotation Zrotation
					JOINT right_foot_ee
					{
						OFFSET	22.5	-16.5	-42.2
						CHANNELS 3  Xrotation Yrotation Zrotation
						End Site
						{
							OFFSET	1	0	0
						}
					}
				}
			}
		}
	}
}
MOTION
Frames: 13
Frame Time: 0.02
3177.02 653.055 -1669.29 -13.5764380347 72.2594958534 15.7063971258 2.14497 0.24325 0.93481 2.14544 0.183275 0.948392 2.14846 0.0160808 0.965804 2.1472 0.168403 0.951146 -8.37855 -1.15611 -1.07407 -8.37584 -1.40769 -1.31884 -0.0 0.0 -0.0 -1.02347 23.7549 1.35523 -21.8444 -11.3122 68.183 0.49194 -13.6958 0.0590778 -9.33802 -0.421024 1.11582 2.5773 17.8925 23.624 -0.0 0.0 -0.0 12.6334 25.1927 -24.9232 10.2671 13.2319 -58.852 2.3711 49.5826 -1.09529 79.016 3.72557 8.55333 1.02905 -10.1668 -10.8627 0.0 0.0 0.0 31.9374 0.509302 -12.4189 -6.18244 0.204731 0.926276 -5.3819 -8.09007 0.831554 -8.63556 0.0 0.0 -0.0 0.0 -0.0 -11.0967 8.54956 -0.90509 -8.93489 -0.263481 -1.34453 40.0286 12.8443 5.10261 -20.7447 0.0 0.0 0.0 0.0 0.0 
3156.32507456 655.696 -1669.40207686 -12.5099522451 71.7756898855 14.8833976588 2.18062 0.236195 0.994243 2.18116 0.172453 1.00726 2.18417 -0.0041476 1.0219 2.18275 0.157287 1.00974 -8.44384 -2.57441 -0.0571254 -8.44711 -4.77405 -0.633895 -0.0 0.0 -0.0 -1.08383 23.9033 1.29407 -21.2661 -11.1879 68.1352 0.499204 -13.8902 0.0608096 -9.04097 -0.404851 1.08144 2.43618 19.9978 23.2623 -0.0 0.0 -0.0 12.8714 24.8252 -25.5126 9.40067 13.1106 -59.1338 2.34582 49.2792 -1.07608 76.2315 3.41131 8.38323 1.06186 -12.7606 -12.0285 0.0 0.0 0.0 30.9283 0.427024 -12.4126 -7.75729 0.240806 1.16525 -1.54388 -6.94922 0.235208 -7.70777 0.0 0.0 -0.0 0.0 -0.0 -11.8046 8.12901 -0.549408 -10.2936 -0.285057 -1.55189 39.2162 13.3137 5.04441 -19.1729 0.0 0.0 0.0 0.0 0.0 
3156.32491466 655.696 -1669.3670882 -12.5740188129 71.8702471923 14.9508292294 2.18062 0.236195 0.994243 2.18116 0.172453 1.00726 2.18417 -0.0041476 1.0219 2.18275 0.157287 1.00974 -8.44384 -2.57441 -0.0571254 -8.44711 -4.77405 -0.633895 -0.0 0.0 -0.0 -1.08383 23.9033 1.29407 -21.2661 -11.1879 68.1352 0.499204 -13.8902 0.0608096 -9.04097 -0.404851 1.08144 2.43618 19.9978 23.2623 -0.0 0.0 -0.0 12.8714 24.8252 -25.5126 9.40067 13.1106 -59.1338 2.34582 49.2792 -1.07608 76.2315 3.41131 8.38323 1.06186 -12.7606 -12.0285 0.0 0.0 0.0 30.9283 0.427024 -12.4126 -7.75729 0.240806 1.16525 -1.54388 -6.94922 0.235208 -7.70777 0.0 0.0 -0.0 0.0 -0.0 -11.8046 8.12901 -0.549408 -10.2936 -0.285057 -1.55189 39.2162 13.3137 5.04441 -19.1729 0.0 0.0 0.0 0.0 0.0 
3145.29612968 662.03 -1665.26159435 -13.6967749581 70.8822507835 15.9443346554 2.19121 0.215518 1.15803 2.19195 0.141398 1.1694 2.19479 -0.0625373 1.17625 2.19288 0.124002 1.17137 -8.93133 -3.23088 1.54012 -8.93274 -7.12103 0.764902 -0.0 0.0 -0.0 -1.1022 23.7312 1.24484 -18.9954 -12.3763 67.8243 0.47611 -13.2709 0.0553868 -8.87066 -0.395659 1.06169 2.39807 23.0782 23.8066 -0.0 0.0 -0.0 13.0549 24.5743 -25.9644 9.4344 12.534 -59.4848 2.26477 48.2814 -1.01512 75.2328 3.30065 8.31853 0.929381 -15.7308 -12.2435 0.0 0.0 0.0 31.2349 0.959052 -12.3722 -7.64792 0.238513 1.14862 -0.497961 -8.72079 0.0763554 -7.47578 0.0 0.0 -0.0 0.0 -0.0 -11.4911 8.79595 0.170877 -11.4506 -0.299549 -1.72884 38.1067 11.7757 4.90196 -17.556 0.0 0.0 0.0 0.0 0.0 
3061.12109456 677.87 -1660.09570183 -11.3374759879 71.0278049229 15.0544882072 1.98731 0.152238 1.17009 1.98807 0.0774789 1.1774 1.98964 -0.131093 1.17264 1.98772 0.0557365 1.17863 -6.45721 -5.75876 3.08989 -6.40795 -12.9209 1.98945 -0.0 0.0 -0.0 -4.99489 23.2989 -4.19716 -8.81251 -13.7373 73.4999 0.966541 -25.5845 0.21946 -7.95338 -0.347165 0.954855 1.79191 29.7108 21.6525 -0.0 0.0 -0.0 12.7834 23.7854 -25.4174 4.81237 9.85259 -60.4949 2.14227 46.6953 -0.924808 68.7181 2.60845 7.85053 0.312586 -27.6631 -12.627 0.0 0.0 0.0 24.7905 2.35278 -11.1403 -4.81598 0.168114 0.719773 4.15743 -9.26949 -0.631047 -5.35132 0.0 0.0 -0.0 0.0 -0.0 -11.4228 9.67792 0.674444 -18.4821 -0.310614 -2.80695 32.6663 4.66911 4.23696 -8.90663 0.0 0.0 0.0 0.0 0.0 
3022.55953004 681.898 -1661.70822456 -10.0335619184 71.973128757 13.3155328248 2.01577 0.1576 1.21868 2.01659 0.0797389 1.22624 2.01827 -0.136859 1.22118 2.01619 0.0577058 1.22747 -6.89033 -5.71733 4.01424 -6.82666 -13.5144 2.87645 -0.0 0.0 -0.0 -3.64422 23.3453 -2.30843 -4.16688 -13.8126 72.005 0.84859 -22.8001 0.171109 -10.2333 -0.470844 1.21893 0.345085 28.9507 13.2318 -0.0 0.0 -0.0 12.637 23.6924 -25.0883 2.35501 7.84033 -61.3127 1.98716 44.5441 -0.813931 68.3772 2.57374 7.82391 0.484659 -28.5379 -13.8769 0.0 0.0 0.0 21.3518 3.45228 -8.86851 -8.05916 0.24697 1.21116 12.2356 -5.45276 -1.77195 -3.20601 0.0 0.0 -0.0 0.0 -0.0 -9.73643 9.35585 0.284839 -21.968 -0.267067 -3.33997 32.4469 -2.82366 4.14976 -8.50682 0.0 0.0 0.0 0.0 0.0 
3022.4984488 681.898 -1663.07628014 -9.76940027784 71.4733198021 13.0373396458 2.01577 0.1576 1.21868 2.01659 0.0797389 1.22624 2.01827 -0.136859 1.22118 2.01619 0.0577058 1.22747 -6.89033 -5.71733 4.01424 -6.82666 -13.5144 2.87645 -0.0 0.0 -0.0 -3.64422 23.3453 -2.30843 -4.16688 -13.8126 72.005 0.84859 -22.8001 0.171109 -10.2333 -0.470844 1.21893 0.345085 28.9507 13.2318 -0.0 0.0 -0.0 12.637 23.6924 -25.0883 2.35501 7.84033 -61.3127 1.98716 44.5441 -0.813931 68.3772 2.57374 7.82391 0.484659 -28.5379 -13.8769 0.0 0.0 0.0 21.3518 3.45228 -8.86851 -8.05916 0.24697 1.21116 12.2356 -5.45276 -1.77195 -3.20601 0.0 0.0 -0.0 0.0 -0.0 -9.73643 9.35585 0.284839 -21.968 -0.267067 -3.33997 32.4469 -2.82366 4.14976 -8.50682 0.0 0.0 0.0 0.0 0.0 
3022.46281341 681.898 -1664.03679407 -9.59250156391 71.1222792693 12.8505805156 2.01577 0.1576 1.21868 2.01659 0.0797389 1.22624 2.01827 -0.136859 1.22118 2.01619 0.0577058 1.22747 -6.89033 -5.71733 4.01424 -6.82666 -13.5144 2.87645 -0.0 0.0 -0.0 -3.64422 23.3453 -2.30843 -4.16688 -13.8126 72.005 0.84859 -22.8001 0.171109 -10.2333 -0.470844 1.21893 0.345085 28.9507 13.2318 -0.0 0.0 -0.0 12.637 23.6924 -25.0883 2.35501 7.84033 -61.3127 1.98716 44.5441 -0.813931 68.3772 2.57374 7.82391 0.484659 -28.5379 -13.8769 0.0 0.0 0.0 21.3518 3.45228 -8.86851 -8.05916 0.24697 1.21116 12.2356 -5.45276 -1.77195 -3.20601 0.0 0.0 -0.0 0.0 -0.0 -9.73643 9.35585 0.284839 -21.968 -0.267067 -3.33997 32.4469 -2.82366 4.14976 -8.50682 0.0 0.0 0.0 0.0 0.0 
2986.14366761 683.698 -1655.01696481 -8.64693333391 71.5802465411 11.8961379484 2.0665 0.0820418 1.34772 2.06751 -0.00387548 1.35021 2.06733 -0.239837 1.32875 2.06487 -0.0269962 1.34995 -8.79776 -6.12268 2.6509 -8.80448 -13.3063 1.19754 -0.0 0.0 -0.0 -2.16031 21.4663 -0.587647 0.325346 -15.8621 71.5392 0.631687 -17.376 0.0965275 -11.7954 -0.561626 1.39697 -0.941394 28.3412 5.95626 -0.0 0.0 -0.0 11.9968 23.882 -23.5977 -0.896294 5.43572 -62.3505 1.84902 42.4839 -0.718796 68.6145 2.59788 7.84246 0.461496 -28.9667 -13.8838 0.0 0.0 0.0 18.8459 4.708 -7.19794 -10.2383 0.284275 1.54345 16.9375 -6.39534 -2.41331 -1.8832 0.0 0.0 -0.0 0.0 -0.0 -8.84923 9.42976 1.50417 -26.446 -0.163704 -4.01921 31.9748 -5.87891 4.09548 -7.31438 0.0 0.0 0.0 0.0 0.0 
2969.67917136 683.397 -1652.82713339 -7.2269945755 71.6029324252 10.5547737347 2.07559 -0.0264189 1.22814 2.07642 -0.104509 1.22397 2.07409 -0.316729 1.1869 2.07215 -0.12532 1.22202 -9.28106 -6.34277 2.55983 -9.3015 -13.6605 0.997126 -0.0 0.0 -0.0 -1.32202 20.3505 0.443875 2.57062 -16.3137 71.1227 0.557915 -15.4496 0.0756795 -12.3904 -0.597483 1.46414 -1.59263 27.9946 2.27023 -0.0 0.0 -0.0 11.6718 24.1064 -22.8329 -2.84242 4.96868 -63.4771 1.81079 41.8885 -0.693123 68.961 2.63328 7.86937 0.610941 -29.3343 -14.8304 0.0 0.0 0.0 17.8637 5.24431 -6.50514 -11.5563 0.300694 1.74501 19.8015 -5.9523 -2.778 -1.06807 0.0 0.0 -0.0 0.0 -0.0 -8.08146 9.21432 1.61755 -29.2413 -0.0723775 -4.43845 31.7447 -6.87063 4.07222 -6.30162 0.0 0.0 0.0 0.0 0.0 
2954.30396946 681.847 -1652.17544071 -3.86970108116 71.7292453559 7.16201597988 1.84785 0.0136085 1.15798 1.84859 -0.0600996 1.1565 1.84734 -0.265666 1.12718 1.84558 -0.0843271 1.15499 -9.53514 -5.57892 1.86028 -9.55866 -11.7512 0.468271 -0.0 0.0 -0.0 -0.938468 18.8475 0.795616 4.60648 -18.5017 70.6446 0.533582 -14.806 0.0693292 -12.0721 -0.578212 1.42825 -1.6876 26.6489 1.1331 -0.0 0.0 -0.0 11.3777 24.1859 -22.1557 -4.11123 3.69694 -64.0715 1.76023 41.0836 -0.659633 70.0133 2.74174 7.94976 0.645782 -29.4321 -15.0543 0.0 0.0 0.0 15.3855 6.02592 -5.80138 -12.1599 0.306665 1.83744 23.5405 -5.12759 -3.22915 -0.970705 0.0 0.0 -0.0 0.0 -0.0 -6.69458 9.60174 2.3132 -35.5788 0.209712 -5.36948 30.68 -7.71681 3.96197 -5.5939 0.0 0.0 0.0 0.0 0.0 
2944.70830783 685.878 -1649.23625766 -2.61171734265 71.9396004026 5.99935558225 1.59807 0.109661 1.2536 1.59895 0.0296755 1.25804 1.59965 -0.200826 1.24226 1.59749 -0.00212976 1.25839 -9.69294 -5.39944 1.69939 -9.71802 -11.3066 0.338941 -0.0 0.0 -0.0 -0.33748 17.2505 1.5016 6.03057 -18.0565 70.5414 0.483726 -13.4755 0.0571483 -11.3823 -0.537147 1.35013 -1.75545 26.4545 0.667847 -0.0 0.0 -0.0 11.3134 24.5325 -21.9752 -5.05466 3.09302 -64.8742 1.67633 39.7032 -0.605259 70.8859 2.83281 8.01493 0.455191 -29.1585 -13.9095 0.0 0.0 0.0 13.6477 6.19831 -5.26731 -11.3607 0.298551 1.71508 24.0033 -4.79694 -3.28048 -3.03829 0.0 0.0 -0.0 0.0 -0.0 -3.43416 9.16125 1.79756 -39.8665 0.458298 -5.9796 30.4232 -11.5479 3.95093 -3.89446 0.0 0.0 0.0 0.0 0.0 
2930.55167246 688.659 -1642.59091352 -2.35736513843 72.6388022168 5.66166803314 1.54201 0.126396 1.18524 1.54279 0.0507258 1.19088 1.54391 -0.168993 1.17992 1.54197 0.0194608 1.1918 -8.81429 -5.11882 2.03443 -8.82116 -10.9994 0.821846 -0.0 0.0 -0.0 -0.30261 16.2965 1.43909 7.9749 -19.5059 70.4652 0.484084 -13.4851 0.0572318 -11.4416 -0.540639 1.35686 -1.96798 25.861 -0.793836 -0.0 0.0 -0.0 11.1376 24.6208 -21.5676 -6.32632 3.07101 -65.8266 1.56045 37.7013 -0.532789 72.2687 2.97911 8.11533 0.608701 -29.2015 -14.7772 0.0 0.0 0.0 12.1699 6.20498 -4.87817 -11.222 0.296968 1.69385 26.3234 -6.26509 -3.57069 -3.90846 0.0 0.0 -0.0 0.0 -0.0 -1.04317 8.98319 2.03657 -43.5925 0.710996 -6.49373 27.9167 -12.8256 3.68463 -3.5656 0.0 0.0 0.0 0.0 0.0 
